# xmcd CD database file
#
# Track frame offsets:
#	187
#	22025
#	39757
#	60927
#	74062
#	94955
#	112542
#	130870
#	147137
#
# Disc length: 2105 seconds
#
# Revision: 0
# Processed by: cddbd v1.5PL3 Copyright (c) Steve Scherf et al.
# Submitted via: CDex 1.51
#
DISCID=71083709
DTITLE=Tony Bennett - Bill Evans - The Tony Bennett - Bill Evans Album
DYEAR=1975
DGENRE=Jazz
TTITLE0=My Foolish Heart
TTITLE1=The Touch of Your Lips
TTITLE2=Some Other Time
TTITLE3=When in Roma
TTITLE4=We'll Be Together Again
TTITLE5=Woung and Foolish
TTITLE6=Waltz for Debby
TTITLE7=But Beautiful
TTITLE8=Days of Wine and Roses
EXTD=YEAR: 1975
EXTT0=
EXTT1=
EXTT2=
EXTT3=
EXTT4=
EXTT5=
EXTT6=
EXTT7=
EXTT8=
PLAYORDER=
